<?xml version="1.0" encoding="UTF-8"?>
<svg width="112px" height="100px" viewBox="0 0 112 100" version="1.1" xmlns="http://www.w3.org/2000/svg" xmlns:xlink="http://www.w3.org/1999/xlink">
    <!-- Generator: Sketch 42 (36781) - http://www.bohemiancoding.com/sketch -->
    <title>Logo</title>
    <desc>Created with Sketch.</desc>
    <defs></defs>
    <g id="App" stroke="none" stroke-width="1" fill="none" fill-rule="evenodd">
        <g id="Tablet-9″-Portrait-Copy-2" transform="translate(-613.000000, -47.000000)">
            <g id="Logo" transform="translate(613.000000, 47.000000)">
                <path d="M21.6378177,95.7393046 L22.6225899,95.7393046 C23.4027098,95.7393046 23.983693,95.9448681 24.3633573,96.3572902 C24.7442206,96.7696882 24.9347002,97.2408393 24.9347002,97.7696403 C24.9347002,98.3028537 24.7376259,98.775012 24.3448681,99.1853237 C23.9511511,99.5954436 23.3797842,99.799976 22.6291127,99.799976 L21.6378177,99.799976 L21.6378177,95.7393046 Z M22.1927818,96.281223 L22.1927818,99.245012 L22.2241727,99.245012 C22.6354436,99.245012 22.9446763,99.2265228 23.15247,99.1895444 C23.3601439,99.1525659 23.5572182,99.0710552 23.7432614,98.9458513 C23.9303357,98.8206475 24.0782494,98.6553717 24.1882494,98.4486571 C24.2981055,98.2418225 24.3535731,98.0144844 24.3535731,97.7663789 C24.3535731,97.4541007 24.2655396,97.1723261 24.0904317,96.9197842 C23.9139568,96.6685372 23.7039808,96.4986811 23.4591847,96.4117986 C23.2143405,96.3247242 22.8858753,96.281223 22.4723022,96.281223 L22.1927818,96.281223 Z M27.9598082,95.7393046 L30.2120384,95.7393046 L30.2120384,96.2942686 L28.5145803,96.2942686 L28.5145803,97.2996403 L30.2120384,97.2996403 L30.2120384,97.8544125 L28.5145803,97.8544125 L28.5145803,99.245012 L30.2120384,99.245012 L30.2120384,99.799976 L27.9598082,99.799976 L27.9598082,95.7393046 Z M33.3806475,95.7393046 L34.2610312,95.7393046 C34.6994005,95.7393046 35.0553957,95.8481295 35.3306475,96.0656595 C35.6059472,96.2833333 35.7440767,96.5618225 35.7440767,96.901223 C35.7440767,97.1723261 35.6560432,97.4126859 35.4786331,97.6205755 C35.301199,97.8283693 35.0247482,97.9752038 34.6495204,98.0601199 L35.82247,99.799976 L35.1857794,99.799976 L34.0596882,98.128705 L33.9356115,98.128705 L33.9356115,99.799976 L33.3806475,99.799976 L33.3806475,95.7393046 Z M33.9356115,96.2290168 L33.9356115,97.6455875 C34.7539329,97.6629257 35.1630695,97.4258034 35.1630695,96.9340048 C35.1630695,96.7620144 35.1150839,96.6206235 35.0193765,96.5107674 C34.9236691,96.4019424 34.7963549,96.3268345 34.6376259,96.2877458 C34.47753,96.2484412 34.2436211,96.2290168 33.9356115,96.2290168 Z M42.3371223,95.5696403 L43.4500959,99.799976 L42.9126859,99.799976 L42.2303837,97.2059712 L41.0770983,99.9565947 L39.9182254,97.1982974 L39.2382494,99.799976 L38.697482,99.799976 L39.8039568,95.5696403 L41.0759233,98.5966427 L42.3371223,95.5696403 Z M47.973717,95.58247 L49.8897842,99.799976 L49.3118945,99.799976 L48.8406954,98.7618945 L47.116235,98.7618945 L46.6471942,99.799976 L46.0704796,99.799976 L47.973717,95.58247 Z M47.9758034,96.8577218 L47.32506,98.2984412 L48.6297602,98.2984412 L47.9758034,96.8577218 Z M52.2564748,95.7393046 L54.7502878,95.7393046 L54.7502878,96.2942686 L53.7776739,96.2942686 L53.7776739,99.799976 L53.2226859,99.799976 L53.2226859,96.2942686 L52.2564748,96.2942686 L52.2564748,95.7393046 Z M57.4947242,97.7413669 C57.4947242,97.1547962 57.7154436,96.6533333 58.1573621,96.2355396 C58.6002398,95.817554 59.1311271,95.608729 59.7513429,95.608729 C60.3573621,95.608729 60.8786811,95.8198561 61.3170743,96.2409113 C61.7545803,96.6620144 61.9731894,97.1613189 61.9731894,97.7413669 C61.9731894,98.3539089 61.7566906,98.8718945 61.3246283,99.2951079 C60.8916067,99.7183453 60.3618465,99.9305755 59.7328537,99.9305755 C59.1114868,99.9305755 58.5838369,99.7173141 58.1485132,99.2908393 C57.7121823,98.8642206 57.4947242,98.3473861 57.4947242,97.7413669 Z M61.3856595,97.7729017 C61.3856595,97.3256115 61.2246283,96.9492326 60.9013909,96.6423741 C60.5783693,96.3366906 60.180024,96.1831175 59.7078417,96.1831175 C59.2596163,96.1831175 58.8754676,96.338801 58.5554916,96.6510072 C58.2355396,96.9623501 58.0756595,97.3366187 58.0756595,97.7729017 C58.0756595,98.2157794 58.240024,98.590048 58.5686091,98.8969065 C58.8972182,99.2026619 59.298705,99.3559472 59.7752758,99.3559472 C60.2136691,99.3559472 60.591271,99.1993285 60.9090647,98.8871223 C61.2267386,98.5748201 61.3856595,98.2026619 61.3856595,97.7729017 Z M65.2136451,95.7393046 L65.7686091,95.7393046 L65.7686091,99.245012 L67.0873861,99.245012 L67.0873861,99.799976 L65.2136451,99.799976 L65.2136451,95.7393046 Z M69.8383453,97.7413669 C69.8383453,97.1547962 70.0591367,96.6533333 70.5009832,96.2355396 C70.9438609,95.817554 71.4747482,95.608729 72.095036,95.608729 C72.7010552,95.608729 73.2223022,95.8198561 73.6607674,96.2409113 C74.0982014,96.6620144 74.3168825,97.1613189 74.3168825,97.7413669 C74.3168825,98.3539089 74.1003118,98.8718945 73.6682494,99.2951079 C73.2352278,99.7183453 72.7054916,99.9305755 72.0765468,99.9305755 C71.4551079,99.9305755 70.927482,99.7173141 70.4921583,99.2908393 C70.0558034,98.8642206 69.8383453,98.3473861 69.8383453,97.7413669 Z M73.7293525,97.7729017 C73.7293525,97.3256115 73.5683213,96.9492326 73.245012,96.6423741 C72.9219904,96.3366906 72.5236451,96.1831175 72.0514628,96.1831175 C71.6032374,96.1831175 71.2191607,96.338801 70.8991847,96.6510072 C70.5792326,96.9623501 70.4193525,97.3366187 70.4193525,97.7729017 C70.4193525,98.2157794 70.5836451,98.590048 70.9122542,98.8969065 C71.2409113,99.2026619 71.6423261,99.3559472 72.1188969,99.3559472 C72.5573621,99.3559472 72.9349161,99.1993285 73.2527578,98.8871223 C73.5704317,98.5748201 73.7293525,98.2026619 73.7293525,97.7729017 Z M81.4026139,96.3855635 L80.9913429,96.7902878 C80.5756595,96.3855635 80.0948681,96.1831175 79.5475779,96.1831175 C79.0698321,96.1831175 78.6717026,96.3366906 78.3538369,96.6423741 C78.0361871,96.9480815 77.8772422,97.330024 77.8772422,97.7892806 C77.8772422,98.1896163 78.0317506,98.5519185 78.3397602,98.8728537 C78.647554,99.1949161 79.0730935,99.3559472 79.615012,99.3559472 C80.4276739,99.3559472 80.9391367,99.0034293 81.1481775,98.2984412 L80.0447722,98.2984412 L80.0447722,97.7434772 L81.7813189,97.7434772 C81.7813189,98.0210312 81.7628297,98.2429736 81.7258513,98.4084173 C81.6876978,98.5736691 81.6116307,98.7553717 81.4941007,98.9545564 C81.3766427,99.153717 81.2209832,99.3320863 81.026211,99.4898801 C80.8314628,99.6476499 80.6235971,99.7608873 80.4005516,99.8294724 C80.1786091,99.8968585 79.9131655,99.9305755 79.6040048,99.9305755 C78.9022782,99.9305755 78.3418705,99.7107914 77.9240767,99.270024 C77.5050839,98.8295444 77.296307,98.3267146 77.296307,97.7598561 C77.296307,97.1636211 77.5107194,96.6564508 77.9381535,96.2376499 C78.3658034,95.818705 78.88494,95.608729 79.4930695,95.608729 C79.8553717,95.608729 80.1852038,95.6630216 80.4843645,95.7730216 C80.7834772,95.8818465 81.0893765,96.0864508 81.4026139,96.3855635 Z M84.9239568,95.7393046 L85.4789209,95.7393046 L85.4789209,99.799976 L84.9239568,99.799976 L84.9239568,95.7393046 Z M90.3168585,95.58247 L92.2329257,99.799976 L91.65506,99.799976 L91.1839089,98.7618945 L89.4594724,98.7618945 L88.9903597,99.799976 L88.4136451,99.799976 L90.3168585,95.58247 Z M90.3189688,96.8577218 L89.6682974,98.2984412 L90.9729736,98.2984412 L90.3189688,96.8577218 Z" id="Fill-2" fill="#A38F98"></path>
                <path d="M16.7299281,96.3907914 C17.5274341,96.3907914 18.1741007,97.037458 18.1741007,97.834964 C18.1741007,98.63247 17.5274341,99.2791367 16.7299281,99.2791367 C15.932494,99.2791367 15.2858273,98.63247 15.2858273,97.834964 C15.2858273,97.037458 15.932494,96.3907914 16.7299281,96.3907914" id="Fill-3" fill="#A0A7B7"></path>
                <path d="M96.2626139,96.3907914 C97.0601199,96.3907914 97.7067866,97.037458 97.7067866,97.834964 C97.7067866,98.63247 97.0601199,99.2791367 96.2626139,99.2791367 C95.4651079,99.2791367 94.8184412,98.63247 94.8184412,97.834964 C94.8184412,97.037458 95.4651079,96.3907914 96.2626139,96.3907914" id="Fill-4" fill="#A0A7B7"></path>
                <path d="M56.4892806,3.04877698 C61.6746283,7.02081535 69.0003837,15.4033333 67.7158273,21.9028297 C66.5725899,27.6873381 58.3920144,26.263765 59.5864508,20.2517986 C60.6349161,14.9743405 67.2854676,20.4384652 64.7635012,22.7330456 C63.0759233,24.2685612 60.411199,21.6458034 62.5609832,20.765036 C62.1521823,20.6852998 61.7641487,20.684964 61.5186331,21.0743885 C59.9442686,23.5713909 65.5638849,25.4301679 66.1328537,22.0230935 C67.1017266,16.2218465 58.1979376,14.4396882 57.9301199,21.0470024 C57.563717,30.0857794 70.158729,28.9119424 69.9947002,20.519976 C69.8405755,12.6341487 63.7609832,5.24110312 57.6041007,0.533333333 C57.3304077,0.201606715 56.9146043,0.021822542 56.4909592,0.0267146283 L56.4876259,0.0267146283 C56.0639329,0.021822542 55.6481295,0.201606715 55.3744365,0.533333333 C49.2176259,5.24110312 43.1379616,12.6341487 42.9838369,20.519976 C42.8198082,28.9119424 55.4148201,30.0857794 55.0484173,21.0470024 C54.7805995,14.4396882 45.8768825,16.2218465 46.8457074,22.0230935 C47.4146523,25.4301679 53.0342686,23.5713909 51.4599041,21.0743885 C51.2144604,20.684964 50.8264269,20.6852998 50.417554,20.765036 C52.5673381,21.6458034 49.9026859,24.2685612 48.215036,22.7330456 C45.6931415,20.4384652 52.343693,14.9743405 53.3920863,20.2517986 C54.5865947,26.263765 46.4060192,27.6873381 45.2627098,21.9028297 C43.9781535,15.4033333 51.3039089,7.02081535 56.4892806,3.04877698" id="Fill-5" fill="#BDA9B2"></path>
                <path d="M56.4892806,7.23079137 C58.363741,8.7823741 63.6529017,13.4634772 60.8155396,14.5113429 C58.1311271,15.5027098 57.234988,11.6772422 59.5686331,12.4333573 C60.4474341,12.7180336 59.847554,13.5493285 59.2610312,13.9588969 C60.9065468,14.3806954 61.0960192,11.7772422 59.3897122,11.5257074 C54.593717,10.818753 57.9230456,18.3425899 61.9718225,15.709976 C66.4256835,12.8138849 59.0585372,6.35443645 57.2470024,4.82182254 C57.0179856,4.65779376 56.7501679,4.5876259 56.4892806,4.60381295 C56.2284412,4.5876259 55.9605995,4.65779376 55.7316067,4.82182254 C53.92,6.35443645 46.5528537,12.8138849 51.0067866,15.709976 C55.0554916,18.3425899 58.3848681,10.818753 53.5888969,11.5257074 C51.8825899,11.7772422 52.0719904,14.3806954 53.717506,13.9588969 C53.1310072,13.5493285 52.5311751,12.7180336 53.4099041,12.4333573 C55.7436211,11.6772422 54.8474101,15.5027098 52.1630695,14.5113429 C49.3257074,13.4634772 54.6148681,8.7823741 56.4892806,7.23079137" id="Fill-6" fill="#A38F98"></path>
                <path d="M22.7803118,36.8713189 C26.7523501,31.6859712 35.1348681,24.3602158 41.6343645,25.6447722 C47.418801,26.7880096 45.9952998,34.9686331 39.9833333,33.7741487 C34.7058034,32.7256835 40.1699281,26.0751319 42.4645084,28.5970743 C44.0000959,30.2847482 41.3773381,32.9493765 40.4965707,30.7996163 C40.4168345,31.2084892 40.4164988,31.5964988 40.8059233,31.8419664 C43.3029257,33.4163309 45.1617026,27.7967146 41.7546283,27.2277458 C35.9533813,26.2589448 34.1711511,35.1626619 40.7785372,35.4304796 C49.8172422,35.7968825 48.6434772,23.2018705 40.2514388,23.3658993 C32.3656835,23.52 24.9725659,29.5996882 20.2648681,35.7564988 C19.9331415,36.0301679 19.7532854,36.4459952 19.7582494,36.8696882 L19.7582494,36.8729496 C19.7532854,37.2966667 19.9331415,37.71247 20.2648681,37.9861391 C24.9725659,44.1429736 32.3656835,50.2226379 40.2514388,50.3767386 C48.6434772,50.5407674 49.8172422,37.9457794 40.7785372,38.3121583 C34.1711511,38.58 35.9533813,47.483765 41.7546283,46.5148921 C45.1617026,45.9459233 43.3029257,40.3263309 40.8059233,41.9006715 C40.4164988,42.146211 40.4168345,42.5342206 40.4965707,42.9430456 C41.3773381,40.7932614 44.0000959,43.4579616 42.4645084,45.1455635 C40.1699281,47.667506 34.7058034,41.0169784 39.9833333,39.9684892 C45.9952998,38.7740767 47.418801,46.9546523 41.6343645,48.0978897 C35.1348681,49.382446 26.7523501,42.0566906 22.7803118,36.8713189" id="Fill-7" fill="#BDA9B2"></path>
                <path d="M26.9623261,36.8713189 C28.5139089,34.9968585 33.195012,29.7076978 34.2428777,32.54506 C35.2341966,35.2294724 31.408705,36.1256835 32.1648921,33.7919664 C32.4494964,32.9132134 33.2807914,33.5130456 33.6903597,34.0995683 C34.1122302,32.4540288 31.508777,32.2645803 31.2572422,33.9709353 C30.5502878,38.7668585 38.0740767,35.437554 35.4415108,31.3888249 C32.5453477,26.9349161 26.0858993,34.3020624 24.5533573,36.1136451 C24.3892566,36.3426619 24.3191607,36.6105036 24.3352758,36.8713189 C24.3191607,37.1321583 24.3892566,37.399976 24.5533573,37.6290647 C26.0858993,39.4405755 32.5453477,46.8077458 35.4415108,42.3538129 C38.0740767,38.3051079 30.5502878,34.9757794 31.2572422,39.7717746 C31.508777,41.4780576 34.1122302,41.2886091 33.6903597,39.6430935 C33.2807914,40.2295923 32.4494964,40.8294245 32.1648921,39.9506954 C31.408705,37.6169544 35.2341966,38.5131655 34.2428777,41.1976019 C33.195012,44.034964 28.5139089,38.7458034 26.9623261,36.8713189" id="Fill-8" fill="#A38F98"></path>
                <path d="M90.3118225,36.7577938 C86.3397842,41.9431655 77.9572662,49.2689209 71.4577698,47.9843645 C65.6732374,46.8410552 67.0968345,38.6604796 73.108801,39.854964 C78.3863309,40.9033813 72.9221823,47.5539329 70.6276259,45.0320384 C69.0920144,43.3443885 71.7147722,40.6797362 72.5955635,42.8295204 C72.6752998,42.4206475 72.6756355,42.0326139 72.2861871,41.7871463 C69.7891847,40.2128058 67.9304317,45.8323981 71.337506,46.4013669 C77.138753,47.3701918 78.9209592,38.4664748 72.3135971,38.1986571 C63.2748921,37.8322542 64.4486331,50.4272422 72.8406954,50.2632134 C80.7264508,50.1091127 88.1195683,44.0294484 92.8272422,37.8726379 C93.1589688,37.5989448 93.3388489,37.1831415 93.3338849,36.7594245 L93.3338849,36.7560911 C93.3388489,36.33247 93.1589688,35.9166427 92.8272422,35.6429736 C88.1195683,29.4860911 80.7264508,23.4064748 72.8406954,23.2523741 C64.4486331,23.0883453 63.2748921,35.6833573 72.3135971,35.3169544 C78.9209592,35.0491367 77.138753,26.1453477 71.337506,27.1142206 C67.9304317,27.6831894 69.7891847,33.3028058 72.2861871,31.7284412 C72.6756355,31.4829257 72.6752998,31.0948921 72.5955635,30.6860911 C71.7147722,32.8358513 69.0920144,30.1711511 70.6276259,28.4835492 C72.9221823,25.9616067 78.3863309,32.6121583 73.108801,33.6606235 C67.0968345,34.85506 65.6732374,26.6744844 71.4577698,25.531247 C77.9572662,24.2466906 86.3397842,31.572446 90.3118225,36.7577938" id="Fill-9" fill="#BDA9B2"></path>
                <path d="M86.1298082,36.7577938 C84.5782254,38.6322062 79.8971223,43.9213669 78.8492566,41.0840048 C77.8579376,38.3996643 81.6834293,37.5034532 80.9272422,39.8371703 C80.6426139,40.7158993 79.8113429,40.1160671 79.4017746,39.5295683 C78.9799041,41.1750839 81.5833573,41.3644844 81.8348681,39.6581775 C82.5418465,34.8621823 75.0180576,38.1915827 77.6506235,42.2402878 C80.5467866,46.6942206 87.006235,39.3270743 88.538777,37.5154676 C88.7028777,37.2864508 88.7729496,37.0186331 88.7568585,36.7577938 C88.7729496,36.4969065 88.7028777,36.2290647 88.538777,36.0000719 C87.006235,34.1885372 80.5467866,26.8213189 77.6506235,31.2752518 C75.0180576,35.3240288 82.5418465,38.6533333 81.8348681,33.8573621 C81.5833573,32.1510552 78.9799041,32.3405036 79.4017746,33.9860432 C79.8113429,33.3995204 80.6426139,32.7996403 80.9272422,33.6784412 C81.6834293,36.0120863 77.8579376,35.1159472 78.8492566,32.4315348 C79.8971223,29.5941727 84.5782254,34.8833333 86.1298082,36.7577938" id="Fill-10" fill="#A38F98"></path>
                <path d="M56.6028537,70.5803597 C51.417506,66.6082494 44.0917506,58.2257794 45.376307,51.726307 C46.5195444,45.9417746 54.7001199,47.3653477 53.5056835,53.3772662 C52.4572182,58.6547962 45.8066667,53.1906475 48.3286091,50.8960911 C50.016211,49.3605516 52.6809113,51.9833094 50.5311511,52.8640288 C50.939952,52.9438369 51.3279616,52.9441727 51.5735012,52.5546523 C53.1478657,50.0576499 47.5282494,48.1988969 46.9592806,51.6060432 C45.9904077,57.4072902 54.8941966,59.1894245 55.1620144,52.5821343 C55.5284173,43.5433573 42.9334053,44.7171703 43.0974341,53.1091607 C43.2515348,60.994964 49.3311511,68.3880336 55.4880336,73.0957794 C55.7617026,73.4274341 56.17753,73.6073141 56.6011511,73.6024221 L56.6044844,73.6024221 C57.0282014,73.6073141 57.4440048,73.4274341 57.7176739,73.0957794 C63.8745084,68.3880336 69.9541727,60.994964 70.1082734,53.1091607 C70.2723022,44.7171703 57.6773141,43.5433573 58.043693,52.5821343 C58.3115348,59.1894245 67.2152518,57.4072902 66.2464269,51.6060432 C65.677458,48.1988969 60.0578657,50.0576499 61.6322062,52.5546523 C61.8776739,52.9441727 62.2656835,52.9438369 62.6745803,52.8640288 C60.5247962,51.9833094 63.1894245,49.3605516 64.8770983,50.8960911 C67.3989928,53.1906475 60.7484412,58.6547962 59.700024,53.3772662 C58.5055396,47.3653477 66.6861151,45.9417746 67.8294245,51.726307 C69.1139808,58.2257794 61.7882254,66.6082494 56.6028537,70.5803597" id="Fill-11" fill="#BDA9B2"></path>
                <path d="M56.6028537,66.3983453 C54.7283933,64.8467626 49.4392326,60.1655875 52.2765947,59.1177938 C54.9610072,58.1264029 55.8571463,61.9518945 53.5235012,61.1957794 C52.6446763,60.9110791 53.2445803,60.0798082 53.8311031,59.6702398 C52.1855635,59.2484412 51.9961151,61.8518945 53.7024221,62.1034053 C58.4983933,62.8103118 55.1690887,55.2865228 51.1203118,57.9191367 C46.6664508,60.8152518 54.0335971,67.2747002 55.8451079,68.8073141 C56.0741247,68.9713429 56.3419664,69.0414868 56.6028537,69.0253237 C56.863693,69.0414868 57.1315108,68.9713429 57.3605276,68.8073141 C59.1721103,67.2747002 66.5392806,60.8152518 62.0853477,57.9191367 C58.0366427,55.2865228 54.7072422,62.8103118 59.5032374,62.1034053 C61.2095204,61.8518945 61.0201439,59.2484412 59.3746283,59.6702398 C59.9611271,60.0798082 60.5609592,60.9110791 59.6822302,61.1957794 C57.3484892,61.9518945 58.2447002,58.1264029 60.9290647,59.1177938 C63.7664269,60.1655875 58.4772662,64.8467626 56.6028537,66.3983453" id="Fill-12" fill="#A38F98"></path>
                <path d="M20.3077698,31.2227098 C21.6658273,24.2789688 24.0325659,13.7895683 33.1647482,13.9157314 C38.0294005,13.9828297 40.5618945,17.5274101 41.3858993,21.9589688 C39.7940288,18.8527098 38.2745324,15.8334293 34.367554,15.348753 C25.6284173,14.2647242 23.6174341,25.4241247 22.6366667,31.5704796 C22.5406235,32.2135971 21.9413909,32.6570743 21.2983213,32.5610312 C20.6552038,32.465036 20.2117266,31.8657554 20.3077698,31.2227098" id="Fill-13" fill="#A38F98"></path>
                <path d="M50.2257794,0.699688249 C43.3106235,2.19647482 32.8707674,4.77266187 33.1796403,13.9005036 C33.3441487,18.7629017 36.938705,21.2238849 41.3858993,21.9589688 C38.2482974,20.4296403 35.1992566,18.9708393 34.6364508,15.0743885 C33.3777218,6.35870504 44.4946283,4.12477218 50.6201199,3.02117506 C51.261223,2.91227818 51.6925899,2.30429257 51.583693,1.66326139 C51.4748681,1.02215827 50.8668825,0.590791367 50.2257794,0.699688249" id="Fill-14" fill="#A38F98"></path>
                <path d="M45.8547242,8.20244604 C34.9361631,7.53016787 38.5716547,16.6126379 42.1414868,14.0690168 C45.1229496,11.9447962 40.0125659,9.5047482 40.1456595,12.4017986 C40.16,12.715036 40.3345084,12.974988 40.4723741,13.2552518 C38.4858753,12.3183933 40.8035492,9.04911271 43.1285612,10.8532134 C46.6580096,13.5921583 38.9601439,19.2203837 37.10247,12.6397842 C35.8044365,8.04201439 42.5195683,6.21527578 46.1659233,6.30923261 C46.6886571,6.39515588 47.0428297,6.88865707 46.9569065,7.41139089 C46.8709832,7.93414868 46.377458,8.28829736 45.8547242,8.20244604" id="Fill-15" fill="#A0A7B7"></path>
                <path d="M27.2560432,26.4132374 C26.8940767,15.480024 35.8696403,19.3718465 33.2256595,22.8680336 C31.0176259,25.7879856 28.723741,20.6103837 31.6157554,20.8256595 C31.9285372,20.8489928 32.1834293,21.0307434 32.4596403,21.1764988 C31.5795923,19.1642446 28.2457314,21.3881775 29.9831655,23.7634293 C32.6207434,27.3692806 38.4652758,19.8342926 31.9400719,17.7904796 C27.3810552,16.362494 25.3643885,23.0229496 25.3547242,26.6705516 C25.4257554,27.1955396 25.9090887,27.5635492 26.4340767,27.492518 C26.9589928,27.4214868 27.3270983,26.9382254 27.2560432,26.4132374" id="Fill-16" fill="#A0A7B7"></path>
                <path d="M50.9541727,73.0529017 C44.0104317,71.6947722 33.5211031,69.3280096 33.6471942,60.1958993 C33.7143645,55.331199 37.2588729,52.798705 41.6905036,51.9747482 C38.5841727,53.5666427 35.5648921,55.0861391 35.0802878,58.9930456 C33.996259,67.7322542 45.1556595,69.7431415 51.3020144,70.7239329 C51.94506,70.819976 52.3885612,71.4192086 52.2925659,72.0623261 C52.1965228,72.7053957 51.5972902,73.1488729 50.9541727,73.0529017" id="Fill-17" fill="#A38F98"></path>
                <path d="M20.4311511,43.1347962 C21.9279376,50.049976 24.5041966,60.4898321 33.6320384,60.1810072 C38.4943645,60.0165228 40.9554197,56.4219424 41.6905036,51.9747482 C40.1611031,55.1123022 38.7023741,58.1614149 34.8059233,58.7241247 C26.0901679,59.9828537 23.856307,48.8659472 22.7526379,42.7404796 C22.6438129,42.0993765 22.0358273,41.6679856 21.3947242,41.7768825 C20.753693,41.8858034 20.3223261,42.493789 20.4311511,43.1347962" id="Fill-18" fill="#A38F98"></path>
                <path d="M27.9339089,47.5058753 C27.2617026,58.4244125 36.3441247,54.7889928 33.8005516,51.2191127 C31.676259,48.2376978 29.236283,53.3480815 32.1332614,53.214988 C32.4465707,53.2005755 32.7065228,53.0260911 32.9867146,52.8882974 C32.0499281,54.8747242 28.7805755,52.5570504 30.5847482,50.2320863 C33.3236211,46.7025899 38.9518465,54.4004556 32.371271,56.2582014 C27.7735492,57.5561391 25.9468106,50.8411031 26.0407674,47.1947482 C26.1266187,46.6719904 26.6201918,46.3178417 27.1429257,46.403693 C27.6656835,46.4896163 28.0198321,46.9831175 27.9339089,47.5058753" id="Fill-19" fill="#A0A7B7"></path>
                <path d="M46.1447242,66.1046043 C35.2115588,66.4665228 39.1033813,57.4909592 42.5995683,60.13494 C45.5194724,62.3429496 40.3419185,64.6369065 40.5571942,61.7448201 C40.5804556,61.4320624 40.7622782,61.1771463 40.9079616,60.9009592 C38.8957794,61.7810552 41.1196403,65.1148681 43.4948921,63.3774341 C47.1007434,60.7398561 39.5657554,54.8953237 37.5219664,61.4205036 C36.0939568,65.9795444 42.7544844,67.996211 46.4020144,68.0058513 C46.9270024,67.9348201 47.295036,67.4515827 47.2239808,66.9265947 C47.1530216,66.4016067 46.6697122,66.0335731 46.1447242,66.1046043" id="Fill-20" fill="#A0A7B7"></path>
                <path d="M62.1379616,0.576235012 C69.0816787,1.93429257 79.5710312,4.30103118 79.44494,13.4332134 C79.3777698,18.2979376 75.8332374,20.8304317 71.4016067,21.6543645 C74.5079616,20.062494 77.5272422,18.5429976 78.0118465,14.6360671 C79.0958753,5.89688249 67.9364748,3.88597122 61.7901199,2.90513189 C61.1470504,2.80913669 60.7035731,2.20992806 60.7995683,1.56678657 C60.8956115,0.923669065 61.4948201,0.480263789 62.1379616,0.576235012" id="Fill-21" fill="#A38F98"></path>
                <path d="M92.6609113,30.4943165 C91.1641966,23.5791367 88.5879376,13.1392326 79.4600959,13.4481055 C74.5977698,13.6126139 72.1367146,17.2071703 71.4016067,21.6543645 C72.9310312,18.5168345 74.3897602,15.4677218 78.2861871,14.904988 C87.0019424,13.6461871 89.2358273,24.7631655 90.3394245,30.8886571 C90.4483213,31.5296882 91.056307,31.9610552 91.6974101,31.8522302 C92.3384173,31.7433333 92.7698082,31.1353477 92.6609113,30.4943165" id="Fill-22" fill="#A38F98"></path>
                <path d="M85.1582014,26.1231894 C85.8304317,15.2047002 76.7480096,18.8401199 79.2915827,22.41 C81.4158753,25.3914149 83.8558273,20.2810312 80.9588489,20.4141247 C80.6455396,20.4285372 80.3856115,20.6030456 80.1053957,20.7408393 C81.0422062,18.7544125 84.3115588,21.0720863 82.5073621,23.3970264 C79.7685132,26.9265468 74.1402638,19.2286811 80.7208633,17.3709353 C85.3185612,16.0729736 87.1453237,22.7880336 87.0513669,26.4343885 C86.9655156,26.9571223 86.4719424,27.311295 85.9491847,27.2253717 C85.4264508,27.1395204 85.0722782,26.6459233 85.1582014,26.1231894" id="Fill-23" fill="#A0A7B7"></path>
                <path d="M66.9474101,7.52450839 C77.8805755,7.16261391 73.988753,16.1381775 70.4925659,13.4941966 C67.5726619,11.2861631 72.7502158,8.99220624 72.5349161,11.8842926 C72.5116787,12.1970024 72.3298321,12.4518945 72.1841727,12.7281055 C74.1963549,11.8480576 71.972494,8.51426859 69.5971703,10.2516787 C65.9913909,12.8892806 73.526307,18.7338129 75.5700959,12.2086091 C76.9981775,7.64959233 70.3376259,5.63292566 66.6901199,5.62326139 C66.1651319,5.69429257 65.7970983,6.17755396 65.8681295,6.70254197 C65.9391127,7.22752998 66.4224221,7.59556355 66.9474101,7.52450839" id="Fill-24" fill="#A0A7B7"></path>
                <path d="M92.7843645,42.4064269 C91.426307,49.3501439 89.0595444,59.8394964 79.9273621,59.7134053 C75.0627338,59.646235 72.5302398,56.1017026 71.706211,51.6700719 C73.2981055,54.7764269 74.8176019,57.7957074 78.7245803,58.2803837 C87.463717,59.3644125 89.4746763,48.205012 90.4554676,42.0586571 C90.5515108,41.4155156 91.1507434,40.9720384 91.793789,41.0681055 C92.4369305,41.1640767 92.8804077,41.7632854 92.7843645,42.4064269" id="Fill-25" fill="#A38F98"></path>
                <path d="M62.8663309,72.9294484 C69.7815108,71.4326619 80.2213669,68.8564029 79.912494,59.7286331 C79.7479856,54.866235 76.1534053,52.4052518 71.706211,51.6700719 C74.8438369,53.1994964 77.8928777,54.6582734 78.4556595,58.5547242 C79.7143885,67.2704077 68.597482,69.5043405 62.4719424,70.6079616 C61.8309113,70.7168585 61.3995204,71.3248441 61.5084173,71.9658753 C61.6172662,72.6068825 62.2252518,73.0383453 62.8663309,72.9294484" id="Fill-26" fill="#A38F98"></path>
                <path d="M67.2374101,65.4266667 C78.1559472,66.0988969 74.5204796,57.0164748 70.9506475,59.5601199 C67.9691847,61.6843405 73.0795683,64.1243645 72.9464508,61.2273141 C72.9321103,60.9140767 72.7576259,60.6540767 72.6197602,60.3738609 C74.6061871,61.3107194 72.2885851,64.580024 69.9635492,62.7758993 C66.4341247,60.0369784 74.1319904,54.408729 75.9896643,60.9893285 C77.2876259,65.5870983 70.5725659,67.4138609 66.926211,67.3199041 C66.4034532,67.2339808 66.0493046,66.7404796 66.1352278,66.2177218 C66.2211511,65.694988 66.7146523,65.3408153 67.2374101,65.4266667" id="Fill-27" fill="#A0A7B7"></path>
                <path d="M85.8360671,47.2158753 C86.1980576,58.1491127 77.222494,54.2572182 79.8664508,50.7610312 C82.0744844,47.8411271 84.3683933,53.018753 81.4763549,52.8034532 C81.1635971,52.7801439 80.9086811,52.5982974 80.632494,52.4526379 C81.512518,54.4648921 84.8463309,52.2409592 83.1089688,49.8656835 C80.4713909,46.2598561 74.6268585,53.7948441 81.1520384,55.8386331 C85.7110552,57.2666427 87.7277458,50.6060911 87.7373861,46.9585851 C87.6663549,46.4335971 87.1830456,46.0655635 86.6580576,46.1365947 C86.1331415,46.2076499 85.765036,46.6908873 85.8360671,47.2158753" id="Fill-28" fill="#A0A7B7"></path>
                <path d="M55.9466667,36.1545803 L55.9464748,36.1547002 C54.4766667,35.1652998 46.2954916,30.4657794 48.2766187,28.4846523 C50.2577458,26.5035252 54.9572662,34.6847002 55.9466667,36.1545803" id="Fill-29" fill="#A38F98"></path>
                <path d="M52.1361391,30.08 L52.1360192,30.0798561 C52.4815348,29.2131655 53.7734532,25.2972662 55.182542,26.4942686 C56.5916307,27.691295 52.9354916,29.5990647 52.1361391,30.08" id="Fill-30" fill="#A0A7B7"></path>
                <path d="M49.9765947,32.572518 L49.9767146,32.5726619 C49.6639568,33.3569784 48.4948201,36.9007674 47.2196403,35.817554 C45.9443885,34.7342686 49.2531655,33.0076978 49.9765947,32.572518" id="Fill-31" fill="#A0A7B7"></path>
                <path d="M55.8861151,37.4140528 L55.886307,37.4141966 C54.8969065,38.8840528 50.1973861,47.0652518 48.216259,45.0841247 C46.2351319,43.1029976 54.416307,38.4034532 55.8861151,37.4140528" id="Fill-32" fill="#A38F98"></path>
                <path d="M49.8116067,41.2245803 L49.8113909,41.2247242 C48.9447002,40.8791847 45.0288729,39.5872182 46.2258034,38.1781055 C47.4228777,36.7690168 49.3306715,40.4252278 49.8116067,41.2245803" id="Fill-33" fill="#A0A7B7"></path>
                <path d="M52.3041247,43.3841487 L52.3042686,43.3840048 C53.0885851,43.6966906 56.6323501,44.8658993 55.5491367,46.1411031 C54.4658513,47.416283 52.7393046,44.107482 52.3041247,43.3841487" id="Fill-34" fill="#A0A7B7"></path>
                <path d="M57.2061631,36.2150839 L57.2060192,36.2148681 C58.1954197,34.74506 62.8948921,26.5638849 64.8760192,28.545012 C66.8571463,30.5261391 58.6760192,35.2256595 57.2061631,36.2150839" id="Fill-35" fill="#A38F98"></path>
                <path d="M63.2807194,32.4045564 L63.2808633,32.4044125 C64.1475779,32.7499281 68.0633813,34.0418465 66.8664508,35.4509353 C65.6694484,36.860048 63.7616067,33.2038849 63.2807194,32.4045564" id="Fill-36" fill="#A0A7B7"></path>
                <path d="M60.7882014,30.244988 L60.7880815,30.2451079 C60.003693,29.9324221 56.459976,28.7632134 57.5431894,27.4880336 C58.6264748,26.2127818 60.3530216,29.5215588 60.7882014,30.244988" id="Fill-37" fill="#A0A7B7"></path>
                <path d="M57.1456595,37.4745564 L57.1458034,37.4744125 C58.6156595,38.4638129 66.7968345,43.1632854 64.8157074,45.1444125 C62.8346043,47.1255396 58.13506,38.9444125 57.1456595,37.4745564" id="Fill-38" fill="#A38F98"></path>
                <path d="M60.9561151,43.5491127 L60.956307,43.5492566 C60.6107914,44.4159712 59.3188249,48.3317986 57.9097122,47.1348441 C56.5006235,45.9378417 60.1568345,44.0300719 60.9561151,43.5491127" id="Fill-39" fill="#A0A7B7"></path>
                <path d="M63.1157554,41.0566187 L63.1156115,41.0564748 C63.4282974,40.2720863 64.5974341,36.7283693 65.8726859,37.8115827 C67.1478657,38.8948681 63.8390887,40.6214149 63.1157554,41.0566187" id="Fill-40" fill="#A0A7B7"></path>
                <path d="M39.2835731,78.9484892 C39.662494,79.0500959 39.8829976,79.4558034 39.7760671,79.8545564 C39.6692086,80.2534293 39.2752278,80.4943405 38.8963789,80.3928537 C38.517554,80.291223 38.2968825,79.8855396 38.4038849,79.4867866 C38.5108153,79.0878897 38.9046043,78.8469784 39.2835731,78.9484892 Z M61.5366427,83.2757554 L56.9616307,86.2591367 C55.99494,86.9886091 54.2564988,87.1979856 55.6770743,85.8514149 C56.3939568,85.1718465 61.0680815,80.9926859 61.5366427,83.2757554 L61.5366427,83.2757554 Z M61.5366427,83.2757554 L62.2129496,83.0506954 C62.0873861,82.1755635 61.8655156,82.2223981 61.1623501,82.0973861 C58.989952,81.7113429 56.5883213,83.6965468 55.2048441,85.149952 C52.745012,87.7343885 53.967458,88.3240767 55.6198321,87.8106475 C57.029952,87.372542 58.7044365,85.9998082 59.2021103,85.8092806 C58.6892806,86.8716787 57.0235731,89.2885372 58.5402158,90.341295 C59.2605036,90.8413429 62.6047002,89.3589688 63.9298321,87.8705516 C64.6954676,87.0104317 64.1649161,86.6101199 63.3926139,87.1791367 C62.9808873,87.7982734 57.2228777,92.3497602 59.3704796,87.5166427 C59.6159472,87.0461871 59.7698561,86.6814868 60.0028058,86.2248921 C60.4853717,85.2794484 60.8758273,84.7759472 61.608705,84.0865228 L61.5366427,83.2757554 Z M48.9899041,85.0668825 C49.066307,83.9208633 50.1388489,83.3030935 50.2096163,81.9040528 C49.2713189,81.8488489 49.3726859,82.0411031 48.1986331,82.6455396 L45.2054676,84.9796163 C44.5432374,85.4705516 43.63494,86.6040048 42.8328058,86.6290647 C42.9128777,85.9849161 43.9901199,84.5282494 44.3705036,83.945012 C45.3723022,82.4086571 44.3035492,80.7540288 41.6718225,82.3151799 C39.903741,83.3640767 40.1515108,83.2547002 38.6223022,84.4903118 C36.5918945,85.791247 34.1585851,89.2856115 38.2441487,87.5277458 L41.3793765,85.5176499 C41.8585612,85.2018945 42.3158273,84.73 42.9235492,84.7098082 C42.8253957,86.13753 41.5505516,86.1450839 41.4617026,87.9948681 C43.5908873,88.1242926 47.1893765,83.3267386 48.8391847,83.2699281 C48.6555156,84.8131415 46.4919424,86.4694005 46.3858993,87.9658513 C47.2715827,88.0153957 47.7414388,87.3358273 48.9696403,86.2319424 C49.3189688,85.9181055 49.3503118,85.9279616 49.7439089,85.6609353 C50.7273861,84.9942206 52.7145084,82.8214628 53.8922062,82.90494 C53.6042446,84.2028297 51.1894964,86.471295 51.4109592,87.685036 C52.1207914,87.9317986 52.2381775,87.6182734 52.5205036,87.0509353 C53.3617026,85.36 54.7422542,83.5777938 54.8200959,81.9810791 C53.8302878,81.6632854 52.8666427,82.2590408 51.9889209,82.7283453 C50.8531415,83.3353717 49.6405036,85.0450839 48.9899041,85.0668825 Z M38.5201918,86.5161631 C39.5128058,85.9676499 40.6132854,85.0870743 41.1758034,84.7565228 C41.7741247,84.40506 43.9300959,83.2836451 44.322446,82.7048921 C44.1531894,82.5853957 44.1752758,82.5335971 43.8977938,82.5178177 L43.6090408,82.5017026 C42.3681055,82.4317506 39.3122062,84.8321103 38.3456355,85.6739329 C37.1502638,86.7145324 36.6686331,87.5388729 38.5201918,86.5161631 Z M20.3155875,86.5216787 C21.3930935,84.8385612 24.398777,82.1051319 25.5394964,82.1740528 C25.8852998,82.194988 26.0292566,82.3708633 26.2471942,82.5293765 C25.8330216,83.5416307 21.9422782,86.6109353 21.0135731,87.1092086 C20.2845803,87.5001918 19.6377938,87.5804796 20.3155875,86.5216787 Z M29.0404556,87.6813669 C29.2471703,86.0123981 32.1141007,83.663717 33.352446,82.662542 C35.0711031,81.3503837 33.2514388,81.5152278 32.1855396,81.7835971 C31.48247,82.0460671 30.6984892,81.2598321 30.4880815,81.6606954 C29.9577218,82.6917026 29.2859233,83.183717 28.4713429,83.926235 C27.5180336,84.796211 26.2758273,86.3025899 24.9248441,86.7656355 C24.3623981,86.9584892 23.8698321,87.1497842 24.0956595,86.3514628 C24.4502158,85.0981535 27.8595444,82.7869305 28.1701439,81.6734053 C27.2570024,81.1523741 27.6163309,81.8160192 27.0064988,81.7798561 C26.5811031,81.7546523 26.6380096,81.4378657 26.0111751,81.3989928 L25.8668106,81.3901439 C24.7848681,81.3229257 23.0083693,82.5241487 22.3402158,83.1466187 C22.0006715,83.4627818 21.7642446,83.7267866 21.428705,84.0577698 C20.8146043,84.6629017 17.5376259,88.1323261 20.0332134,88.2728297 C21.3421823,88.3465947 22.3654436,87.2244125 23.1573141,86.5313189 L23.1298321,87.0928058 C23.0202638,89.337554 27.1848201,86.1019904 27.7308633,85.557482 C28.6022782,84.6889448 29.6542206,83.6069544 30.6790408,83.0129017 C31.137482,82.7471703 32.1285851,82.5469784 32.4951079,82.5393765 C32.3820624,83.0373621 27.6323741,86.5430216 28.1332854,88.4323022 C30.0015108,89.5084412 33.8113669,84.9001439 35.1133813,84.828705 C34.8378897,85.4782254 34.5705276,85.7043885 34.2213189,86.2715108 C33.886259,86.8153237 33.6753957,87.0646763 33.3295923,87.5672902 C32.8284173,88.2954676 33.1534772,88.8891847 33.788729,88.4913669 C34.0317266,88.3393765 34.3939808,87.3593525 34.5668585,87.0371463 C34.890024,86.4346523 35.0992566,86.3384652 35.477554,85.7854916 C36.0594964,84.9342686 37.8090168,82.5666906 37.8763309,81.6186811 C36.8860911,81.5852518 37.0598561,82.1015348 35.7265468,83.2096163 C33.376235,85.1629496 32.2531894,85.7167626 30.2845084,87.1809832 C29.7932374,87.5464269 29.8078417,87.7057554 29.0404556,87.6813669 Z M11.2479856,85.7994245 L11.1621343,85.9709113 L11.2479856,85.7994245 Z M6.52983213,84.3410312 C6.52942446,85.2452038 4.15899281,89.5992566 3.57023981,89.2521823 C3.15402878,88.9441727 6.13705036,84.628777 6.52983213,84.3410312 L6.52983213,84.3410312 Z M11.2479856,85.7994245 C11.3626619,85.3069305 11.5485132,84.9441966 11.7264029,84.476307 C12.1566427,83.3453717 13.5260911,79.7203597 13.077458,78.7382254 C12.4193046,77.2983453 10.9671703,78.4371463 10.2179376,79.0218225 C10.0184892,79.1776259 9.9040048,79.3172422 9.70388489,79.451295 C9.82563549,77.9876978 11.6714868,75.3298561 9.55304556,74.0260432 C8.66491607,73.4794484 7.5153717,74.0418225 6.81539568,74.4182014 C5.98784173,74.8631175 5.32446043,75.3385612 4.59357314,75.8850839 C3.35508393,76.8110072 1.79657074,78.2503597 0.989496403,79.5727098 C0.561294964,80.2742926 -0.00501199041,81.2059952 0.317817746,82.2307434 C0.647697842,83.2777938 1.58477218,83.3022782 2.02239808,83.0033813 C2.3216307,82.7989688 2.22618705,82.6739568 2.15482014,82.3679376 C1.49407674,82.3679376 1.38884892,82.3407434 0.953932854,82.1106954 C1.00232614,79.9384892 4.5282494,77.0195683 6.42657074,75.7452038 C7.21558753,75.2155156 8.07189448,74.7331415 9.36067146,74.7331415 C9.81985612,75.4189688 9.63297362,76.0635252 9.37827338,77.0668825 C9.16258993,77.9158273 8.33122302,80.7340288 7.87923261,81.3153717 C6.71131894,82.8176739 6.01952038,83.4223981 4.72755396,85.3694724 C4.05383693,86.3848921 2.59491607,88.618777 2.75635492,89.8261151 C2.81352518,90.2547002 3.11520384,90.3888969 3.48983213,90.2351319 C4.27014388,89.9144125 4.65134293,89.244964 5.13338129,88.6061871 C5.34798561,88.3218465 5.43913669,88.1247722 5.63729017,87.8233573 C7.11695444,85.571223 7.64323741,84.0167866 8.70141487,81.8802638 C8.92717026,81.4243405 8.95899281,81.4864748 9.2382494,81.1303357 C9.62055156,80.6429496 10.7043645,79.6621103 11.2621823,79.2939329 C11.5704796,79.0903357 11.7930935,78.9365707 12.2774341,78.9365707 C12.2774341,80.8478897 9.94465228,86.1883693 8.9552518,88.3118465 C8.81820144,88.6059233 8.70741007,89.0228297 9.06707434,89.1833813 C9.98788969,89.5944365 10.5570024,88.2248441 11.4689688,86.9639329 C12.9798321,84.8748681 17.4985372,79.1104796 19.9255396,77.9205276 C20.2767146,77.7484173 20.4248201,77.7357074 20.9415108,77.7357074 C20.9271703,78.3752278 19.9523741,79.8855396 19.6547242,80.4806715 C19.4332374,80.923693 19.2318225,81.3296403 18.9968345,81.7959712 C18.0369305,83.7002158 15.6267866,89.1609592 16.3526619,90.9886571 C16.5508153,91.4876739 16.8813909,91.9505995 17.4158273,91.8017986 C18.4364269,91.5177218 20.3264029,90.2630695 20.3405276,89.5879137 C20.3498561,89.1536211 20.0148681,89.1840048 19.7616307,89.3596403 C19.6267146,89.4531175 18.6850839,90.2951559 17.5727098,90.7106235 C16.8588249,90.9774341 17.0193765,90.613765 17.108777,89.8801439 C17.2267146,88.9097842 17.5795683,87.8911511 17.90247,87.0495204 C18.3754436,85.817554 18.8054197,84.838705 19.3688729,83.7118465 C19.9122062,82.6250839 20.4396403,81.5679856 21.0235012,80.5627338 C21.2126859,80.2366427 21.5011031,79.1363789 21.5319664,78.8021343 C21.6006235,78.0583213 21.6051079,77.3166906 21.2615588,76.9865947 C20.0773861,75.8482494 17.1518705,78.9261151 16.2888249,79.8598561 L15.0827818,81.1416307 C13.8622542,82.5932854 13.0967626,83.3833813 11.8230695,85.0876978 C11.6249161,85.3528058 11.5072422,85.6257314 11.2479856,85.7994245 L11.2479856,85.7994245 Z" id="Fill-41" fill="#A0A7B7"></path>
                <path d="M68.6251559,85.4245324 C67.4836211,87.3567626 65.6297362,90.0127098 65.3221583,89.8210791 C64.9351559,89.579952 66.1533094,87.7867386 68.6251559,85.4245324 Z M96.9075779,78.9484892 C97.2864029,79.0500959 97.5070743,79.4558034 97.4,79.8545564 C97.2931415,80.2534293 96.8992806,80.4943405 96.5204556,80.3928537 C96.1414868,80.291223 95.9209592,79.8855396 96.0278177,79.4867866 C96.1348921,79.0878897 96.5286811,78.8469784 96.9075779,78.9484892 Z M80.4154436,78.9484892 C80.7942926,79.0500959 81.0147962,79.4558034 80.9079376,79.8545564 C80.8010072,80.2534293 80.4070743,80.4943405 80.0282494,80.3928537 C79.6493525,80.291223 79.4288249,79.8855396 79.5357554,79.4867866 C79.6426139,79.0878897 80.0366187,78.8469784 80.4154436,78.9484892 Z M102.796235,87.5343165 C102.189544,87.5341966 102.123118,87.5066667 101.577338,87.2293765 C101.029496,86.6841487 102.07036,84.4688969 102.998465,84.0936691 C103.370168,84.2982014 103.510192,84.6386331 104.623309,84.6395923 C105.293501,84.6404077 106.229472,84.35 106.908921,84.3347722 C106.082998,86.5015588 103.061007,87.5517266 102.796235,87.5343165 Z M89.7082494,82.4580096 C90.3920384,82.1464029 91.277506,81.8308393 91.3373381,81.9622542 C91.3971463,82.0936451 90.7009832,82.7141966 90.0170743,83.0258034 C89.3332854,83.337482 88.4900959,83.5456355 88.3104556,83.5216307 C88.1307914,83.4975779 89.0243405,82.7696643 89.7082494,82.4580096 Z M78.6761871,85.6434053 C80.0963549,83.8503118 81.0876739,81.9589209 82.09,79.9230695 C83.1704317,78.1347242 84.2645084,74.7243165 84.9092086,75.1098082 C85.6103357,75.5504317 82.5944604,80.6381775 82.0843405,81.5892566 C81.8547242,82.0174341 81.6401199,82.1504077 81.6455635,82.7994484 C82.5493765,82.6130456 83.0876259,81.7705516 84.0797602,81.4454197 C87.3155875,80.3851079 86.4967386,83.9371223 83.7147242,85.6570743 C82.2893046,86.5492806 80.4043645,87.9253237 78.5613669,87.9273141 C78.581295,87.017554 78.6644844,87.249976 79.4072182,86.9436691 C80.7564269,86.3872182 81.6907674,86.0114388 82.9730935,85.2193046 C83.7522302,84.7381535 84.7927578,84.0521343 85.1525659,83.1001199 C85.4758753,82.2452278 85.2130695,81.9968345 84.3219664,82.1921343 C83.8992086,82.2847962 83.6047242,82.5431175 83.0666906,82.877482 C81.5286331,83.8330456 80.6213429,84.6606715 80.0169065,85.3297602 C78.8784173,86.5901199 77.7747962,88.4538609 75.6934772,87.911199 C75.0842686,87.75247 74.539976,86.6144604 75.632446,85.0190408 C76.7158034,83.4369305 78.293741,81.6458753 78.7122062,81.6104556 C79.0743165,81.6886331 79.2304796,82.0360671 78.9866427,82.4464508 L76.8185612,84.8467146 C74.5165228,87.3949161 76.7958753,88.0423261 78.6761871,85.6434053 Z M103.405635,83.1175779 C103.705492,82.5660911 106.989065,81.1520863 107.059472,83.2705995 C106.572302,83.4893525 103.804053,84.1246523 103.405635,83.1175779 Z M84.7645564,86.6633333 C84.2978177,89.5952518 87.5690887,88.2004317 88.968801,87.1066187 C89.4656355,86.803789 91.1348201,85.6364748 91.8171223,84.9728058 C91.4642446,85.8130695 90.2630216,88.2952518 91.3766906,88.2952518 C93.9104077,88.4529017 96.0839089,84.9873621 97.1797602,83.4964269 C97.4373141,83.1461391 98.4985132,82.8266427 99.0967866,82.8313429 C98.8695923,83.6038129 96.5452518,85.3952278 96.0779137,86.6203837 C94.4944604,90.4226859 100.205971,86.9940528 100.663046,86.4695444 C100.669832,89.836235 104.693741,88.0850839 106.244508,86.5352758 C107.409496,85.3709592 107.602086,84.6660911 107.799544,84.146283 C107.886427,83.9171942 108.486259,83.7999281 108.985132,83.6783213 C111.816523,82.9019664 112.06247,82.2038369 111.708441,81.7706954 C111.432662,81.5503597 108.873717,83.2521103 107.82048,83.1134293 C107.671007,82.2876499 107.347578,81.8261631 106.906882,81.6010072 C105.614556,80.9407434 103.31518,81.9877938 102.451055,83.0241727 C101.773237,83.8372662 101.233909,84.8806475 99.7314149,85.9901679 C98.6746523,86.7843405 95.3014149,88.8670983 97.7580336,85.4193525 C98.5666187,84.2842686 100.399281,82.7293046 101.027194,82.216283 C102.426163,81.0726379 100.510096,81.4809592 99.7296403,81.8343885 C98.1817986,82.5355635 98.0939808,81.2958753 97.1351559,82.5871463 C96.0981055,83.983741 93.387458,87.6253477 91.6202398,87.5486811 C92.0009832,84.7761631 96.0523501,82.2397362 95.3993046,81.5749161 C94.7910312,81.1989928 90.2340528,85.4098321 88.6467866,86.3241247 C84.5889688,89.0767386 85.1053957,85.8023501 88.3072422,84.1594724 C88.9089928,83.9138609 93.0638849,82.5004796 92.2227338,81.4870743 C91.8367626,81.0219904 89.6431415,81.5833333 88.4684173,82.4920624 C88.0379856,82.7392806 85.0140288,85.0963309 84.7645564,86.6633333 Z M76.0970024,73.5322542 L76.510024,73.5322542 C76.9611271,73.5498082 77.3955635,73.6265468 77.8036211,73.7765707 C78.76,74.1280096 79.5696643,74.8098321 79.8038609,75.8940048 C80.1095444,77.3098801 79.5269065,78.45 79.0506715,79.2531415 C76.7809113,83.0810791 69.4777938,84.6002878 69.6029496,85.9972902 C69.7272662,87.3859952 73.6656595,90.690024 75.4595683,90.7266667 C75.7354197,90.7323022 76.534964,90.5656355 76.7820624,90.0594724 C77.1346043,89.3372902 77.9374101,90.058801 77.142494,90.882542 C75.2029017,93.2255875 68.9153477,88.0888249 68.7626619,86.3511271 C68.7445324,86.3718465 66.0244125,91.8315588 64.5986571,90.2679616 C63.5370743,89.2952758 67.346235,85.3406954 68.99,83.8068825 C69.8048201,83.0465468 72.1506475,79.8810552 72.7130935,79.0060432 C73.0629736,78.4617026 73.1582014,78.3613669 73.1582014,77.4783453 C73.3919185,77.3218465 73.3747242,77.1622542 73.7222782,77.2452518 C74.4396403,77.4165468 73.9417746,78.5548201 73.7968585,78.8889209 C73.2952518,80.0451559 72.0119904,81.6585851 71.205012,82.6450839 C70.9921823,82.905012 69.8876259,84.1459472 69.8127098,84.4267626 C71.0288969,83.7832134 72.0377458,83.2546283 73.3022542,82.6834772 C75.5094005,81.5792566 77.6699281,80.0409353 78.6755635,77.6769544 C78.9323981,77.0736691 79.0517506,76.1488969 78.7030456,75.5364269 C77.6973141,73.7703118 73.7392806,74.9853477 72.5820384,75.443789 C71.931223,75.7016307 71.4464029,75.9658513 70.8781775,76.3134772 C69.4260671,77.2020144 67.8786331,78.7836451 67.04,80.1957794 C66.5956355,80.9435971 65.4606235,82.8199041 65.6951319,83.826307 C65.9264748,83.7645324 65.9105516,83.7203357 66.0323022,83.5630456 C66.4447242,83.029952 66.2648441,82.7814388 67.0676739,82.9685132 C67.1729017,83.4202158 67.2234053,83.4720144 66.9885372,83.8318225 C65.6215108,85.9255156 64.0335731,84.4776019 65.1682494,81.3265947 C65.8105036,79.5434053 67.4236691,77.8159712 68.8315348,76.7545084 C70.5917266,75.4270024 73.5551319,73.6283213 76.0970024,73.5322542 Z" id="Fill-42" fill="#A38F98"></path>
            </g>
        </g>
    </g>
</svg>